<svg width="20" height="20" viewBox="0 0 20 20" fill="none" xmlns="http://www.w3.org/2000/svg">
<path d="M10.0009 13.932C9.40978 14.3819 8.18939 15.4945 8.18939 17.0103C8.18939 18.0111 9.00158 18.8253 9.99994 18.8253C10.9983 18.8253 11.8105 18.0111 11.8105 17.0103C11.8105 15.5747 10.5894 14.4099 10.0009 13.932Z" fill="#EF8964"/>
<path d="M14.2434 3.48096C14.0238 3.23264 13.6449 3.2176 13.4057 3.4408L10.6485 6.0142V0.624943C10.6485 0.173811 10.1046 -0.163259 9.69723 0.0831466C9.62012 0.129787 7.78778 1.24869 5.93634 3.28061C3.6852 5.75123 2.15204 8.75939 2.15204 12.133C2.15204 16.4709 5.67262 20 9.99997 20C8.35544 20 7.01755 18.6588 7.01755 17.0103C7.01755 14.3466 9.6038 12.7693 9.71387 12.7034C9.90684 12.5881 10.1484 12.5935 10.3361 12.7171C10.4441 12.7883 12.9824 14.4908 12.9824 17.0103C12.9824 18.6588 11.6445 20 9.99997 20C14.3273 20 17.8479 16.4709 17.8479 12.133C17.8479 8.85744 16.4025 5.92154 14.2434 3.48096Z" fill="#EF8964"/>
</svg>
